<svg width="153" height="153" viewBox="0 0 153 153" fill="none" xmlns="http://www.w3.org/2000/svg">
  <rect x="8" y="8" width="137" height="137" rx="30" fill="#0F7B63"/>
  <rect x="8" y="8" width="137" height="137" rx="30" fill="url(#grid)" fill-opacity="0.28"/>
  <path d="M41 38H104C111.18 38 117 43.82 117 51V111C117 113.761 114.761 116 112 116H49C41.82 116 36 110.18 36 103V43C36 40.239 38.239 38 41 38Z" fill="#F8FBF8"/>
  <path d="M52 57H99" stroke="#0F7B63" stroke-width="8" stroke-linecap="round"/>
  <path d="M52 75H101" stroke="#17231F" stroke-width="7" stroke-linecap="round" stroke-opacity="0.88"/>
  <path d="M52 92H85" stroke="#17231F" stroke-width="7" stroke-linecap="round" stroke-opacity="0.52"/>
  <path d="M101 99C112.598 99 122 89.598 122 78C122 66.402 112.598 57 101 57C89.402 57 80 66.402 80 78C80 89.598 89.402 99 101 99Z" fill="#D8912E"/>
  <path d="M101 66V78L109 84" stroke="#F8FBF8" stroke-width="6" stroke-linecap="round" stroke-linejoin="round"/>
  <defs>
    <pattern id="grid" width="18" height="18" patternUnits="userSpaceOnUse">
      <path d="M18 0H0V18" stroke="white" stroke-opacity="0.48"/>
    </pattern>
  </defs>
</svg>
